ModelForces
version=1
nRows=4
nColumns=206
inDegrees=no

This file contains the forces exerted on a model during a simulation.

A force is a generalized force, meaning that it can be either a force (N) or a torque (Nm).

Units are S.I. units (second, meters, Newtons, ...)
Angles are in degrees.

endheader
time	glut_med1_r	glut_med2_r	glut_med3_r	glut_min1_r	glut_min2_r	glut_min3_r	semimem_r	semiten_r	bifemlh_r	bifemsh_r	sar_r	add_long_r	add_brev_r	add_mag1_r	add_mag2_r	add_mag3_r	tfl_r	pect_r	grac_r	glut_max1_r	glut_max2_r	glut_max3_r	iliacus_r	psoas_r	quad_fem_r	gem_r	peri_r	rect_fem_r	vas_med_r	vas_int_r	vas_lat_r	med_gas_r	lat_gas_r	soleus_r	tib_post_r	flex_dig_r	flex_hal_r	tib_ant_r	per_brev_r	per_long_r	per_tert_r	ext_dig_r	ext_hal_r	glut_med1_l	glut_med2_l	glut_med3_l	glut_min1_l	glut_min2_l	glut_min3_l	semimem_l	semiten_l	bifemlh_l	bifemsh_l	sar_l	add_long_l	add_brev_l	add_mag1_l	add_mag2_l	add_mag3_l	tfl_l	pect_l	grac_l	glut_max1_l	glut_max2_l	glut_max3_l	iliacus_l	psoas_l	quad_fem_l	gem_l	peri_l	rect_fem_l	vas_med_l	vas_int_l	vas_lat_l	med_gas_l	lat_gas_l	soleus_l	tib_post_l	flex_dig_l	flex_hal_l	tib_ant_l	per_brev_l	per_long_l	per_tert_l	ext_dig_l	ext_hal_l	ercspn_r	ercspn_l	intobl_r	intobl_l	extobl_r	extobl_l	femur_lat_meniscii_l.femur_lat_l.force.X	femur_lat_meniscii_l.femur_lat_l.force.Y	femur_lat_meniscii_l.femur_lat_l.force.Z	femur_lat_meniscii_l.femur_lat_l.torque.X	femur_lat_meniscii_l.femur_lat_l.torque.Y	femur_lat_meniscii_l.femur_lat_l.torque.Z	femur_lat_meniscii_l.meniscus_lat_l.force.X	femur_lat_meniscii_l.meniscus_lat_l.force.Y	femur_lat_meniscii_l.meniscus_lat_l.force.Z	femur_lat_meniscii_l.meniscus_lat_l.torque.X	femur_lat_meniscii_l.meniscus_lat_l.torque.Y	femur_lat_meniscii_l.meniscus_lat_l.torque.Z	femur_med_meniscii_l.femur_med_l.force.X	femur_med_meniscii_l.femur_med_l.force.Y	femur_med_meniscii_l.femur_med_l.force.Z	femur_med_meniscii_l.femur_med_l.torque.X	femur_med_meniscii_l.femur_med_l.torque.Y	femur_med_meniscii_l.femur_med_l.torque.Z	femur_med_meniscii_l.meniscus_med_l.force.X	femur_med_meniscii_l.meniscus_med_l.force.Y	femur_med_meniscii_l.meniscus_med_l.force.Z	femur_med_meniscii_l.meniscus_med_l.torque.X	femur_med_meniscii_l.meniscus_med_l.torque.Y	femur_med_meniscii_l.meniscus_med_l.torque.Z	femur_lat_meniscii_r.femur_lat_r.force.X	femur_lat_meniscii_r.femur_lat_r.force.Y	femur_lat_meniscii_r.femur_lat_r.force.Z	femur_lat_meniscii_r.femur_lat_r.torque.X	femur_lat_meniscii_r.femur_lat_r.torque.Y	femur_lat_meniscii_r.femur_lat_r.torque.Z	femur_lat_meniscii_r.meniscus_lat_r.force.X	femur_lat_meniscii_r.meniscus_lat_r.force.Y	femur_lat_meniscii_r.meniscus_lat_r.force.Z	femur_lat_meniscii_r.meniscus_lat_r.torque.X	femur_lat_meniscii_r.meniscus_lat_r.torque.Y	femur_lat_meniscii_r.meniscus_lat_r.torque.Z	femur_med_meniscii_r.femur_med_r.force.X	femur_med_meniscii_r.femur_med_r.force.Y	femur_med_meniscii_r.femur_med_r.force.Z	femur_med_meniscii_r.femur_med_r.torque.X	femur_med_meniscii_r.femur_med_r.torque.Y	femur_med_meniscii_r.femur_med_r.torque.Z	femur_med_meniscii_r.meniscus_med_r.force.X	femur_med_meniscii_r.meniscus_med_r.force.Y	femur_med_meniscii_r.meniscus_med_r.force.Z	femur_med_meniscii_r.meniscus_med_r.torque.X	femur_med_meniscii_r.meniscus_med_r.torque.Y	femur_med_meniscii_r.meniscus_med_r.torque.Z	femur_med_tibia_l.tibia_upper_l.force.X	femur_med_tibia_l.tibia_upper_l.force.Y	femur_med_tibia_l.tibia_upper_l.force.Z	femur_med_tibia_l.tibia_upper_l.torque.X	femur_med_tibia_l.tibia_upper_l.torque.Y	femur_med_tibia_l.tibia_upper_l.torque.Z	femur_med_tibia_l.femur_med_l.force.X	femur_med_tibia_l.femur_med_l.force.Y	femur_med_tibia_l.femur_med_l.force.Z	femur_med_tibia_l.femur_med_l.torque.X	femur_med_tibia_l.femur_med_l.torque.Y	femur_med_tibia_l.femur_med_l.torque.Z	femur_lat_tibia_l.tibia_upper_l.force.X	femur_lat_tibia_l.tibia_upper_l.force.Y	femur_lat_tibia_l.tibia_upper_l.force.Z	femur_lat_tibia_l.tibia_upper_l.torque.X	femur_lat_tibia_l.tibia_upper_l.torque.Y	femur_lat_tibia_l.tibia_upper_l.torque.Z	femur_lat_tibia_l.femur_lat_l.force.X	femur_lat_tibia_l.femur_lat_l.force.Y	femur_lat_tibia_l.femur_lat_l.force.Z	femur_lat_tibia_l.femur_lat_l.torque.X	femur_lat_tibia_l.femur_lat_l.torque.Y	femur_lat_tibia_l.femur_lat_l.torque.Z	femur_med_tibia_r.tibia_upper_r.force.X	femur_med_tibia_r.tibia_upper_r.force.Y	femur_med_tibia_r.tibia_upper_r.force.Z	femur_med_tibia_r.tibia_upper_r.torque.X	femur_med_tibia_r.tibia_upper_r.torque.Y	femur_med_tibia_r.tibia_upper_r.torque.Z	femur_med_tibia_r.femur_med_r.force.X	femur_med_tibia_r.femur_med_r.force.Y	femur_med_tibia_r.femur_med_r.force.Z	femur_med_tibia_r.femur_med_r.torque.X	femur_med_tibia_r.femur_med_r.torque.Y	femur_med_tibia_r.femur_med_r.torque.Z	femur_lat_tibia_r.tibia_upper_r.force.X	femur_lat_tibia_r.tibia_upper_r.force.Y	femur_lat_tibia_r.tibia_upper_r.force.Z	femur_lat_tibia_r.tibia_upper_r.torque.X	femur_lat_tibia_r.tibia_upper_r.torque.Y	femur_lat_tibia_r.tibia_upper_r.torque.Z	femur_lat_tibia_r.femur_lat_r.force.X	femur_lat_tibia_r.femur_lat_r.force.Y	femur_lat_tibia_r.femur_lat_r.force.Z	femur_lat_tibia_r.femur_lat_r.torque.X	femur_lat_tibia_r.femur_lat_r.torque.Y	femur_lat_tibia_r.femur_lat_r.torque.Z	aACL_R	pACL_R	aPCL_R	pPCL_R	aMCL_R	mMCL_R	pMCL_R	aLCL_R	mLCL_R	pLCL_R	aPCL_L	pPCL_L	aMCL_L	aLCL_L	ground_prescribedForce_-90_fx	ground_prescribedForce_-90_fy	ground_prescribedForce_-90_fz
      0.50114532	      7.59525240	      5.69834323	      6.10003489	      2.67357903	      3.19478512	      3.21270941	      0.00000000	      3.19808801	      3.59749324	      5.22838358	      1.48223736	      5.64594665	      4.16365967	      2.93559011	      2.46806742	      4.01328256	      3.18111819	      2.25112124	      1.37863842	      3.67708620	      5.58803279	      4.17176542	     22.70669294	     13.03329556	      3.64708265	      2.86386723	      4.12830872	    243.10367169	     43.31120330	     84.13372067	     60.21297472	      0.00000000	      0.00000000	     11.79169871	     12.43497519	      2.11131974	      2.84223885	     12.14659033	      3.63875377	      7.40952086	      8.35417120	      7.32845308	      2.07695944	      7.59525240	      5.69834323	      6.10003489	      2.67357903	      3.19478512	      3.21270941	      8.81419810	      4.10857761	      7.74024630	      7.25665214	      1.52807446	      5.64594665	      4.16365967	      2.93559011	      2.46806742	      4.01328256	      4.11299099	      2.25112124	      1.56739563	      3.67708620	      5.58803279	      4.17176542	     22.70669294	     13.03329556	      3.64708265	      2.86386723	      4.12830872	     10.74527158	      6.63147121	      7.60769007	      8.18007306	     14.12745930	      6.55984571	     31.37706664	     42.47282954	      2.76267620	      2.94023345	      8.51055793	      4.36929936	     12.53258913	      2.01619236	      5.32097708	      1.69034693	     25.14462060	     25.14462060	      9.05426577	      9.05426577	     26.85335319	     26.85335319	      2.76307435	     50.99597937	     -9.56042239	      5.21997485	     -0.02578839	      1.48581788	     -2.76307435	    -50.99597937	      9.56042239	     -1.74637766	      0.02558040	     -0.48301696	     -3.31599387	     20.97615968	     -3.40468921	      0.94473225	     -0.02138609	     -1.00501789	      3.31599387	    -20.97615968	      3.40468921	      0.28075727	      0.00368718	     -0.29758878	    267.03092900	      3.93951160	     56.76439646	    -23.06832405	      6.67892845	    108.46445247	   -267.03092900	     -3.93951160	    -56.76439646	      0.28160118	     -9.31046784	     -1.08857715	    167.23803742	   -110.63083625	    -23.97575423	      7.58574441	     -3.16972754	     67.39193917	   -167.23803742	    110.63083625	     23.97575423	      1.62104516	      3.20778360	     -3.34743697	      0.00000000	      0.00000000	      0.00000000	      0.00000000	      0.00000000	      0.00000000	      0.00000000	      0.00000000	      0.00000000	      0.00000000	      0.00000000	      0.00000000	      0.00000000	      0.00000000	      0.00000000	      0.00000000	      0.00000000	      0.00000000	      0.00000000	      0.00000000	      0.00000000	      0.00000000	      0.00000000	      0.00000000	   -507.20596224	     11.15420847	    102.80664985	     -0.19996415	      9.77095491	     -2.02476736	    507.20596224	    -11.15420847	   -102.80664985	     41.45385197	     -8.80314644	    205.44957265	      0.00000000	      0.00000000	      0.00000000	      0.00000000	      0.00000000	      0.00000000	      0.00000000	      0.00000000	      0.00000000	      0.00000000	      0.00000000	      0.00000000	      0.00000000	      0.00000000	    839.65545379	    400.40099182	     19.25918958	      6.91476250	      1.00183382	      0.00000000	      0.00000000	      0.00000000	      0.00000000	      0.00000000	      0.00000001	      0.00000000	      0.00000000	   -110.00000000	      0.00000000
      0.50282779	      7.59418609	      5.69760870	      6.09923882	      2.67324901	      3.19442814	      3.21225930	      0.00000000	      3.19680620	      3.59516159	      5.22518089	      1.48082682	      5.64521038	      4.16315039	      2.93521447	      2.46774409	      4.01270014	      3.18234994	      2.25084161	      1.37810736	      3.67661261	      5.58731087	      4.17121658	     22.70536104	     13.03179768	      3.64662268	      2.86365191	      4.12745299	    243.08660269	     43.28952033	     84.09082598	     60.16059689	      0.00000000	      0.00000000	     11.76939796	     12.44113714	      2.11088301	      2.82010150	     12.14767142	      3.63836363	      7.40794953	      8.36364568	      7.32800270	      2.08647877	      7.59418609	      5.69760870	      6.09923882	      2.67324901	      3.19442814	      3.21225930	      8.81264507	      4.10800633	      7.73895407	      7.25573637	      1.52788670	      5.64521038	      4.16315039	      2.93521447	      2.46774409	      4.01270014	      4.11263078	      2.25084161	      1.56719970	      3.67661261	      5.58731087	      4.17121658	     22.70536104	     13.03179768	      3.64662268	      2.86365191	      4.12745299	     10.74351284	      6.63059687	      7.60666766	      8.17897930	     14.12365907	      6.55807836	     31.37057826	     42.47028799	      2.76126638	      2.93924967	      8.50923447	      4.36850645	     12.53068126	      2.01596000	      5.32047610	      1.69020492	     25.14150980	     25.14150980	      9.05304590	      9.05304590	     26.85225744	     26.85225744	      2.76307435	     50.99597937	     -9.56042239	      5.21997485	     -0.02578839	      1.48581788	     -2.76307435	    -50.99597937	      9.56042239	     -1.74637766	      0.02558040	     -0.48301696	     -3.31599387	     20.97615968	     -3.40468921	      0.94473225	     -0.02138609	     -1.00501789	      3.31599387	    -20.97615968	      3.40468921	      0.28075727	      0.00368718	     -0.29758878	    267.06967494	      3.76571424	     54.15341344	    -22.00307965	      6.64568413	    108.48215476	   -267.06967494	     -3.76571424	    -54.15341344	      0.26446146	     -9.20296971	     -1.09546701	    167.14844435	   -110.61927399	    -25.82218740	      8.31791202	     -3.18577920	     67.35633291	   -167.14844435	    110.61927399	     25.82218740	      1.63081734	      3.27675072	     -3.34737012	      0.00000000	      0.00000000	      0.00000000	      0.00000000	      0.00000000	      0.00000000	      0.00000000	      0.00000000	      0.00000000	      0.00000000	      0.00000000	      0.00000000	      0.00000000	      0.00000000	      0.00000000	      0.00000000	      0.00000000	      0.00000000	      0.00000000	      0.00000000	      0.00000000	      0.00000000	      0.00000000	      0.00000000	   -506.56184122	     11.45072639	    106.11809369	     -0.20655335	      9.89876139	     -2.03299755	    506.56184122	    -11.45072639	   -106.11809369	     42.78957324	     -8.83386952	    205.19099281	      0.00000000	      0.00000000	      0.00000000	      0.00000000	      0.00000000	      0.00000000	      0.00000000	      0.00000000	      0.00000000	      0.00000000	      0.00000000	      0.00000000	      0.00000000	      0.00000000	    839.62570973	    400.21411045	     19.43449658	      7.07395052	      1.13481520	      0.00000000	      0.00000000	      0.00000000	      0.00000000	      0.00000000	      0.00000001	      0.00000000	      0.00000000	   -110.00000000	      0.00000000
      0.50415920	      7.59335852	      5.69703862	      6.09862098	      2.67299288	      3.19415107	      3.21190995	      0.00000000	      3.19642452	      3.59302739	      5.22592665	      1.48151929	      5.64463896	      4.16275512	      2.93492294	      2.46749314	      4.01224812	      3.18434176	      2.25062458	      1.37798098	      3.67624504	      5.58675058	      4.17079063	     22.70432732	     13.03063515	      3.64626568	      2.86348480	      4.12678872	    243.09962649	     43.29496848	     84.10296821	     60.15711254	      0.00000000	      0.00000000	     11.75347728	     12.44278570	      2.11123219	      2.80285776	     12.14563533	      3.64006942	      7.40874883	      8.37440719	      7.32653788	      2.09265098	      7.59335852	      5.69703862	      6.09862098	      2.67299288	      3.19415107	      3.21190995	      8.81143971	      4.10756294	      7.73795114	      7.25502563	      1.52774098	      5.64463896	      4.16275512	      2.93492294	      2.46749314	      4.01224812	      4.11235121	      2.25062458	      1.56704764	      3.67624504	      5.58675058	      4.17079063	     22.70432732	     13.03063515	      3.64626568	      2.86348480	      4.12678872	     10.74214784	      6.62991829	      7.60587414	      8.17813041	     14.12070701	      6.55670546	     31.36554157	     42.46831525	      2.76015704	      2.93847813	      8.50820731	      4.36789103	     12.52919991	      2.01577966	      5.32009651	      1.69009745	     25.13909543	     25.13909543	      9.05209915	      9.05209915	     26.85140702	     26.85140702	      2.76307435	     50.99597937	     -9.56042239	      5.21997485	     -0.02578839	      1.48581788	     -2.76307435	    -50.99597937	      9.56042239	     -1.74637766	      0.02558040	     -0.48301696	     -3.31599387	     20.97615968	     -3.40468921	      0.94473225	     -0.02138609	     -1.00501789	      3.31599387	    -20.97615968	      3.40468921	      0.28075727	      0.00368718	     -0.29758878	    266.71489355	      3.90404986	     56.42735676	    -22.93062385	      6.66734165	    108.33637138	   -266.71489355	     -3.90404986	    -56.42735676	      0.27907538	     -9.28768367	     -1.08812102	    167.35001888	   -110.57844065	    -24.17833796	      7.66576705	     -3.17447796	     67.43611359	   -167.35001888	    110.57844065	     24.17833796	      1.62280503	      3.21810197	     -3.34490758	      0.00000000	      0.00000000	      0.00000000	      0.00000000	      0.00000000	      0.00000000	      0.00000000	      0.00000000	      0.00000000	      0.00000000	      0.00000000	      0.00000000	      0.00000000	      0.00000000	      0.00000000	      0.00000000	      0.00000000	      0.00000000	      0.00000000	      0.00000000	      0.00000000	      0.00000000	      0.00000000	      0.00000000	   -507.30767363	     11.23606055	    103.15536051	     -0.19979771	      9.78812326	     -2.02700722	    507.30767363	    -11.23606055	   -103.15536051	     41.59359148	     -8.81005082	    205.49098075	      0.00000000	      0.00000000	      0.00000000	      0.00000000	      0.00000000	      0.00000000	      0.00000000	      0.00000000	      0.00000000	      0.00000000	      0.00000000	      0.00000000	      0.00000000	      0.00000000	    839.67932284	    400.37373424	     19.24021130	      6.89158568	      0.97838620	      0.00000000	      0.00000000	      0.00000000	      0.00000000	      0.00000000	      0.00000001	      0.00000000	      0.00000000	   -110.00000000	      0.00000000
      0.50549062	      7.59254503	      5.69647823	      6.09801365	      2.67274111	      3.19387872	      3.21156656	      0.00000000	      3.19565854	      3.59123284	      5.22450980	      1.48090180	      5.64407725	      4.16236657	      2.93463636	      2.46724646	      4.01180379	      3.18568408	      2.25041124	      1.37768693	      3.67588372	      5.58619982	      4.17037191	     22.70331119	     13.02949242	      3.64591476	      2.86332053	      4.12613563	    243.09295182	     43.28442096	     84.08153015	     60.12665232	      0.00000000	      0.00000000	     11.73558435	     12.44593937	      2.11284095	      2.78646802	     12.14609058	      3.64005434	      7.40791140	      8.38281650	      7.32344268	      2.09805499	      7.59254503	      5.69647823	      6.09801365	      2.67274111	      3.19387872	      3.21156656	      8.81025483	      4.10712710	      7.73696525	      7.25432697	      1.52759774	      5.64407725	      4.16236657	      2.93463636	      2.46724646	      4.01180379	      4.11207641	      2.25041124	      1.56689816	      3.67588372	      5.58619982	      4.17037191	     22.70331119	     13.02949242	      3.64591476	      2.86332053	      4.12613563	     10.74080605	      6.62925125	      7.60509413	      8.17729597	     14.11780289	      6.55535485	     31.36058976	     42.46637589	      2.75905318	      2.93771263	      8.50719763	      4.36728605	     12.52774323	      2.01560239	      5.31973148	      1.68999421	     25.13672212	     25.13672212	      9.05116850	      9.05116850	     26.85057106	     26.85057106	      2.76307435	     50.99597937	     -9.56042239	      5.21997485	     -0.02578839	      1.48581788	     -2.76307435	    -50.99597937	      9.56042239	     -1.74637766	      0.02558040	     -0.48301696	     -3.31599387	     20.97615968	     -3.40468921	      0.94473225	     -0.02138609	     -1.00501789	      3.31599387	    -20.97615968	      3.40468921	      0.28075727	      0.00368718	     -0.29758878	    266.65876150	      3.85317824	     55.45766689	    -22.53535857	      6.65324203	    108.31398233	   -266.65876150	     -3.85317824	    -55.45766689	      0.27310094	     -9.24562616	     -1.08958396	    167.36733595	   -110.65119500	    -24.84670593	      7.92974895	     -3.18127919	     67.44374229	   -167.36733595	    110.65119500	     24.84670593	      1.62714759	      3.24393398	     -3.34754011	      0.00000000	      0.00000000	      0.00000000	      0.00000000	      0.00000000	      0.00000000	      0.00000000	      0.00000000	      0.00000000	      0.00000000	      0.00000000	      0.00000000	      0.00000000	      0.00000000	      0.00000000	      0.00000000	      0.00000000	      0.00000000	      0.00000000	      0.00000000	      0.00000000	      0.00000000	      0.00000000	      0.00000000	   -507.13818725	     11.33324485	    104.35368340	     -0.20224246	      9.83558370	     -2.02949375	    507.13818725	    -11.33324485	   -104.35368340	     42.07708764	     -8.82242200	    205.42289564	      0.00000000	      0.00000000	      0.00000000	      0.00000000	      0.00000000	      0.00000000	      0.00000000	      0.00000000	      0.00000000	      0.00000000	      0.00000000	      0.00000000	      0.00000000	      0.00000000	    839.68334985	    400.31549269	     19.29771344	      6.94363172	      1.02239412	      0.00000000	      0.00000000	      0.00000000	      0.00000000	      0.00000000	      0.00000001	      0.00000000	      0.00000000	   -110.00000000	      0.00000000
